<?xml version="1.0" standalone="no"?>
<!DOCTYPE svg PUBLIC "-//W3C//DTD SVG 20010904//EN" "http://www.w3.org/TR/2001/REC-SVG-20010904/DTD/svg10.dtd">
<svg version="1.0" xmlns="http://www.w3.org/2000/svg"
    width="216.000000pt" height="218.000000pt" viewBox="0 0 216.000000 218.000000"
    preserveAspectRatio="xMidYMid meet">

    <g transform="translate(0.000000,218.000000) scale(0.100000,-0.100000)"
        fill="#ffffff" stroke="none">
        <path
            d="M985 1829 c-87 -14 -205 -81 -274 -154 -99 -107 -141 -212 -141 -357
0 -184 84 -335 243 -439 85 -55 152 -73 277 -72 82 0 118 5 165 22 135 48 244
152 307 288 27 59 32 82 36 174 7 164 -30 267 -138 382 -121 130 -294 187
-475 156z m135 -196 c0 -5 -16 -19 -35 -32 -19 -13 -35 -27 -35 -32 0 -14 32
2 77 38 38 31 46 34 97 31 l56 -3 -44 -35 -45 -35 -1 -134 c0 -126 1 -133 18
-120 9 8 23 22 30 32 11 14 29 17 93 17 46 0 79 -4 79 -10 0 -6 -17 -22 -38
-37 l-38 -27 4 -118 c3 -64 2 -128 -2 -142 l-6 -26 -289 0 c-176 0 -291 4
-293 10 -2 5 -1 67 2 137 l5 128 72 3 c67 3 72 4 71 25 0 12 0 72 1 134 l1
111 63 46 c52 38 69 45 110 46 26 0 47 -3 47 -7z" />
        <path
            d="M1105 1370 c3 -5 15 -10 26 -10 10 0 19 5 19 10 0 6 -12 10 -26 10
-14 0 -23 -4 -19 -10z" />
        <path d="M1115 1330 c-19 -7 -19 -8 -2 -15 10 -4 23 -3 29 3 14 14 -3 21 -27
12z" />
        <path
            d="M940 1090 c0 -5 14 -10 30 -10 17 0 30 5 30 10 0 6 -13 10 -30 10
-16 0 -30 -4 -30 -10z" />
        <path
            d="M1240 1090 c0 -5 11 -10 25 -10 14 0 25 5 25 10 0 6 -11 10 -25 10
-14 0 -25 -4 -25 -10z" />
        <path d="M946 1052 c-11 -10 6 -22 30 -22 14 0 24 6 24 14 0 13 -43 20 -54 8z" />
        <path
            d="M1245 1040 c3 -5 15 -10 26 -10 10 0 19 5 19 10 0 6 -12 10 -26 10
-14 0 -23 -4 -19 -10z" />
        <path
            d="M1110 661 c0 -28 -2 -29 -35 -24 -45 7 -75 -17 -75 -62 0 -46 25 -64
88 -63 l52 1 0 89 c0 72 -3 88 -15 88 -10 0 -15 -10 -15 -29z m-5 -70 c11 -36
-17 -67 -50 -55 -20 8 -29 42 -15 59 18 21 57 19 65 -4z" />
        <path
            d="M520 595 c0 -69 3 -85 15 -85 10 0 15 10 15 29 0 28 3 30 43 33 23 2
42 8 42 13 0 6 -19 11 -42 13 -38 3 -43 6 -43 27 0 21 5 24 47 27 26 2 48 9
51 16 3 9 -14 12 -62 12 l-66 0 0 -85z" />
        <path
            d="M1190 595 l0 -85 63 0 c36 0 68 5 75 12 14 14 16 54 2 63 -5 3 -7 19
-3 35 9 46 -10 60 -78 60 l-59 0 0 -85z m108 50 c3 -2 2 -11 -1 -20 -4 -9 -19
-15 -42 -15 -27 0 -35 4 -35 18 0 10 3 22 7 25 6 7 63 0 71 -8z m8 -77 c10
-16 -26 -39 -56 -36 -17 2 -26 10 -28 26 -3 20 1 22 37 22 22 0 43 -5 47 -12z" />
        <path
            d="M663 628 c3 -7 17 -39 31 -70 21 -46 23 -58 12 -68 -8 -6 -19 -9 -26
-8 -7 2 -15 -3 -17 -9 -7 -20 52 -16 69 5 15 18 68 136 68 153 0 5 -6 9 -12 9
-7 0 -22 -21 -32 -46 l-19 -47 -24 47 c-13 25 -30 46 -39 46 -9 0 -14 -6 -11
-12z" />
        <path
            d="M830 573 c0 -56 2 -63 19 -63 17 0 20 8 23 48 3 43 5 47 28 47 23 0
25 -4 28 -47 2 -34 7 -48 18 -48 14 0 18 19 14 75 -3 45 -16 54 -76 53 l-54
-2 0 -63z" />
        <path
            d="M1390 620 c-43 -43 -10 -110 53 -110 20 0 41 8 50 18 22 25 21 75 -1
95 -25 23 -78 21 -102 -3z m88 -42 c2 -19 -3 -30 -19 -39 -20 -10 -25 -9 -41
11 -24 30 -8 63 30 58 21 -2 28 -9 30 -30z" />
        <path
            d="M1554 618 c28 -39 29 -47 6 -75 -26 -34 -9 -45 24 -14 21 20 22 20
34 1 7 -11 21 -20 33 -20 19 0 19 1 -5 33 -25 32 -25 32 -6 57 24 30 25 40 5
40 -8 0 -20 -10 -26 -22 l-12 -22 -17 22 c-10 12 -26 22 -35 22 -16 0 -16 -2
-1 -22z" />
    </g>
</svg>